<!-- Generator: Adobe Illustrator 22.1.0, SVG Export Plug-In  -->
<svg version="1.1"
	 xmlns="http://www.w3.org/2000/svg" xmlns:xlink="http://www.w3.org/1999/xlink" xmlns:a="http://ns.adobe.com/AdobeSVGViewerExtensions/3.0/"
	 x="0px" y="0px" width="330.792px" height="129.205px" viewBox="0 0 330.792 129.205"
	 style="enable-background:new 0 0 330.792 129.205;" xml:space="preserve">
<style type="text/css">
	.st0{fill:#FF7800;}
</style>
<defs>
</defs>
<g>
	<path class="st0" d="M328.838,23.826c-54.476,0-108.951,0-163.427,0c-54.595,0-109.191,0-163.786,0.002
		c-1.914,0-1.584-0.161-1.585,1.587c-0.009,25.838-0.006,51.676-0.007,77.514c0,1.868,0,1.872,1.91,1.872
		c109.111,0.001,218.222-0.002,327.333,0.028c1.201,0,1.511-0.277,1.509-1.503c-0.04-25.878-0.03-51.756-0.03-77.634
		C330.755,23.827,330.755,23.826,328.838,23.826z M44.862,97.548C26.309,97.552,11.354,82.467,11.363,63.76
		c0.009-18.536,15.162-33.427,33.999-33.413c18.267,0.014,33.188,15.181,33.19,33.736C78.553,82.586,63.494,97.545,44.862,97.548z
		 M120.882,48.271c-0.659,4.63-4.335,7.905-9.005,8.064c-2.591,0.088-5.2-0.214-7.771,0.344
		c-5.989,1.298-10.549,6.701-10.676,12.849c-0.1,4.837-0.009,9.677-0.045,14.515c-0.035,4.763-3.816,9.005-8.45,9.596
		c-0.97,0.124-1.418,0.009-1.393-1.179c0.083-3.997,0.032-7.997,0.032-11.996c0-3.559-0.001-7.118,0-10.677
		c0.004-10.894,8.667-20.861,19.464-22.436c2.109-0.308,4.223-0.307,6.341-0.309c3.479-0.003,6.959,0.037,10.437-0.024
		C120.843,47,121.015,47.339,120.882,48.271z M169.653,83.391c-0.031,0-0.062,0-0.092,0c0,4.558-0.022,9.117,0.019,13.675
		c0.008,0.883-0.22,1.181-1.138,1.159c-2.558-0.062-5.12-0.065-7.678-0.001c-0.94,0.024-1.128-0.306-1.122-1.17
		c0.007-1.098,0.53-2.565-0.234-3.199c-0.649-0.539-2.059-0.185-3.132-0.188c-3.72-0.012-7.444,0.109-11.158-0.033
		c-9.637-0.369-16.844-4.977-20.796-13.629c-4.058-8.883-2.881-17.562,3.669-25.051c6.178-7.064,14.161-9.5,23.211-7.499
		c8.696,1.922,14.489,7.448,17.41,15.888c0.763,2.206,1.023,4.52,1.036,6.849C169.67,74.592,169.653,78.991,169.653,83.391z
		 M221.122,93.659c-4.704-0.462-8.595-4.733-8.645-9.664c-0.047-4.639,0.016-9.28-0.021-13.919
		c-0.052-6.435-4.692-12.106-10.939-13.44c-8.054-1.719-16.101,4.38-16.428,12.615c-0.193,4.872-0.059,9.758-0.09,14.637
		c-0.03,4.763-3.407,8.807-8.06,9.686c-1.688,0.319-1.752,0.263-1.751-1.437c0.002-3.96,0.001-7.92,0.001-11.88
		c0.001-3.28,0.001-6.56,0.001-9.84c0.003-13.325,10.776-23.658,24.107-23.403c11.645,0.222,20.041,8.802,22.209,17.042
		c0.511,1.943,0.794,3.919,0.796,5.927c0.008,7.52-0.014,15.04,0.026,22.559C222.334,93.512,222.077,93.753,221.122,93.659z
		 M273.225,93.669c-3.068-0.3-5.486-1.677-7.099-4.306c-0.504-0.821-0.789-0.75-1.509-0.244c-8.18,5.753-16.895,6.345-25.511,1.52
		c-8.695-4.869-12.803-12.663-11.796-22.722c1.2-11.981,11.051-20.722,23.26-20.868c4.277-0.051,8.556-0.001,12.833-0.065
		c1.008-0.015,1.196,0.333,1.092,1.245c-0.483,4.233-4.119,7.799-8.375,8.058c-1.833,0.112-3.676,0.044-5.515,0.078
		c-6.798,0.128-12.589,5.186-13.435,11.726c-0.975,7.54,3.019,13.896,9.942,15.82c6.842,1.902,14.064-1.837,16.487-8.505
		c0.221-0.609,0.168-0.988-0.303-1.466c-1.832-1.86-2.826-4.121-3.07-6.729c-0.072-0.766,0.092-1.059,0.931-1.054
		c4.037,0.022,8.076,0.008,12.113-0.053c0.888-0.013,1.061,0.327,1.056,1.121c-0.03,4.238-0.014,8.476-0.014,12.714
		c-0.001,4.238-0.023,8.476,0.017,12.714C274.337,93.521,274.062,93.751,273.225,93.669z M293.67,65.65
		c4.599,0,9.198,0.021,13.796-0.017c0.851-0.007,1.081,0.235,1.03,1.079c-0.249,4.089-3.982,7.981-8.203,8.218
		c-3.229,0.182-6.475,0.103-9.713,0.063c-1.069-0.013-1.227,0.262-0.768,1.187c2.514,5.064,6.438,8.056,12.202,8.318
		c1.876,0.085,3.759,0.001,5.637,0.054c4.406,0.125,8.541,4.138,8.713,8.395c0.023,0.577,0.041,0.99-0.762,0.972
		c-5.394-0.125-10.804,0.304-16.184-0.225c-12.6-1.239-21.801-13.104-20.651-25.701c0.941-10.303,10.447-21.378,23.89-21.156
		c4.238,0.07,8.478,0.035,12.716-0.012c0.896-0.01,1.049,0.308,0.995,1.107c-0.283,4.14-4.165,7.99-8.487,8.256
		c-1.992,0.122-3.997,0.03-5.996,0.071c-5.254,0.108-10.562,3.989-12.258,8.943c-0.036,0.106-0.021,0.229-0.039,0.449
		C290.968,65.65,292.319,65.65,293.67,65.65z"/>
	<path class="st0" d="M1.504,21.639c109.095-0.031,218.19-0.03,327.284-0.03c0.28,0,0.563-0.029,0.839,0.004
		c0.871,0.106,1.156-0.208,1.15-1.13c-0.043-6.478-0.02-12.957-0.033-19.435c-0.001-0.325,0.195-0.727-0.212-0.977
		c-0.243-0.007-0.487-0.014-0.73-0.021c-0.519-0.017-1.037-0.048-1.556-0.049c-106.517-0.002-213.035-0.002-319.552,0
		c-0.479,0-0.957,0.03-1.436,0.046c-0.243,0.008-0.486,0.016-0.73,0.023C2.901,0.373,0.068,3.494,0.04,7.295
		c-0.031,4.279,0.043,8.559-0.039,12.836C-0.022,21.347,0.288,21.64,1.504,21.639z M239.928,6.13
		c1.078,0.539,1.425,1.493,1.268,2.605c-0.176,1.244,0.304,1.638,1.501,1.481c0.937-0.123,1.925,0.158,2.814-0.358
		c1.146-0.666,1.668-1.712,1.661-2.99c-0.007-1.236,0.883-0.688,1.437-0.793c0.751-0.142,0.826,0.308,0.822,0.916
		c-0.01,1.381-0.397,2.641-1.378,3.592c-0.642,0.623-0.5,0.934,0.043,1.489c0.93,0.949,1.297,2.159,1.337,3.491
		c0.02,0.669-0.19,1.004-0.874,0.878c-0.529-0.097-1.289,0.405-1.422-0.714c-0.338-2.852-2.626-4.201-5.51-3.369
		c-0.442,0.128-0.414,0.409-0.415,0.725c-0.004,0.878-0.028,1.758,0.004,2.635c0.035,0.95-0.647,0.722-1.156,0.721
		c-0.512-0.001-1.173,0.211-1.15-0.736c0.037-1.516,0.01-3.034,0.01-4.552c-0.003-1.477,0.032-2.956-0.016-4.432
		C238.873,5.776,239.322,5.827,239.928,6.13z M221.675,13.175c0.003,0,0.005,0,0.008,0c0-0.718-0.026-1.437,0.005-2.154
		c0.115-2.74,2.057-4.832,4.78-5.085c0.989-0.092,1.994,0,2.99-0.035c0.669-0.023,0.759,0.276,0.538,0.805
		c-0.429,1.026-1.259,1.383-2.306,1.351c-0.978-0.03-1.923,0.052-2.696,0.743c-0.691,0.618-1.043,1.4-1.052,2.326
		c-0.009,0.958-0.004,1.915,0.001,2.873c0.003,0.53-0.066,1.046-0.401,1.471c-0.401,0.51-0.907,1.092-1.571,0.884
		c-0.596-0.187-0.242-0.905-0.284-1.384C221.636,14.376,221.675,13.774,221.675,13.175z M207.451,5.907
		c3.004-0.005,5.345,2.289,5.376,5.267c0.031,2.964-2.293,5.255-5.345,5.269c-2.953,0.014-5.286-2.263-5.309-5.181
		C202.149,8.27,204.474,5.912,207.451,5.907z M175.134,6.092c0.822,0.382,1.334,1.003,1.34,1.952
		c0.006,0.919-0.005,1.839,0.005,2.759c0.021,2.102,1.27,3.491,3.127,3.489c1.858-0.002,3.062-1.374,3.079-3.528
		c0.011-1.359,0.041-2.72-0.01-4.078c-0.033-0.876,0.398-0.826,0.946-0.568c0.829,0.392,1.279,1.058,1.28,1.996
		c0.001,0.96-0.018,1.92,0.007,2.878c0.05,1.943,1.314,3.293,3.067,3.307c1.833,0.014,3.078-1.334,3.102-3.368
		c0.01-0.879,0.023-1.76,0-2.639c-0.015-0.59,0.148-1.11,0.503-1.562c0.36-0.459,0.894-0.869,1.425-0.733
		c0.568,0.145,0.24,0.815,0.276,1.246c0.056,0.675,0.015,1.358,0.015,2.038c0.001,0.64-0.004,1.279,0.002,1.919
		c0.021,2.243-1.047,3.835-3.031,4.754c-1.983,0.918-3.941,0.679-5.612-0.723c-0.702-0.589-1.016-0.557-1.708,0.01
		c-1.681,1.378-3.638,1.633-5.623,0.714c-1.936-0.896-3.006-2.464-3.052-4.635c-0.033-1.559,0.018-3.119-0.019-4.677
		C174.235,5.873,174.597,5.842,175.134,6.092z M154.836,10.516c0.271-2.755,2.712-4.744,5.484-4.606
		c2.816,0.14,4.996,2.298,5.093,5.059c0.025,0.718,0.004,1.438,0.004,2.157c0.003,0,0.005,0,0.008,0
		c0,0.879-0.022,1.758,0.007,2.636c0.022,0.671-0.321,0.771-0.821,0.552c-0.822-0.36-1.383-0.952-1.398-1.911
		c-0.015-0.959,0.012-1.918-0.014-2.876c-0.058-2.092-1.358-3.5-3.175-3.467c-1.77,0.032-2.988,1.429-3.018,3.475
		c-0.013,0.879-0.01,1.758,0.001,2.637c0.007,0.542-0.132,1.031-0.488,1.438c-0.403,0.461-0.903,0.969-1.521,0.749
		c-0.543-0.193-0.241-0.854-0.245-1.297C154.742,13.547,154.688,12.02,154.836,10.516z M140.474,5.799
		c3.088-0.012,5.425,2.311,5.467,5.442c0.011,0.838,0.002,1.676,0.002,2.514c-0.001,0.958,0.012,1.915-0.008,2.873
		c-0.007,0.362,0.157,0.96-0.456,0.888c-0.623-0.073-1.533,0.539-1.83-0.452c-0.174-0.579-0.494-0.521-0.877-0.527
		c-0.758-0.01-1.517,0.013-2.274-0.009c-3.101-0.091-5.459-2.417-5.456-5.366C135.044,8.178,137.443,5.811,140.474,5.799z
		 M122.667,5.925c0.952-0.08,1.917,0.005,2.875-0.023c0.791-0.023,0.765,0.37,0.506,0.902c-0.457,0.94-1.243,1.3-2.252,1.256
		c-1.258-0.054-2.39,0.207-3.166,1.31c-0.131,0.186-0.357,0.365-0.255,0.629c0.114,0.295,0.405,0.191,0.624,0.196
		c0.639,0.016,1.28,0.032,1.917,0c0.925-0.046,0.917,0.423,0.577,1.033c-0.373,0.67-0.953,1.066-1.743,1.087
		c-0.434,0.012-0.869,0.002-1.489,0.002c0.747,1.571,1.867,2.047,3.305,1.981c1.065-0.049,1.991,0.203,2.488,1.271
		c0.254,0.546,0.242,0.915-0.528,0.884c-0.838-0.034-1.678,0.004-2.517-0.015c-2.869-0.063-5.126-2.191-5.207-4.896
		C117.71,8.487,119.687,6.175,122.667,5.925z M101.588,6.193c0.757,0.416,1.148,1.093,1.16,1.964
		c0.012,0.839,0.003,1.678,0.006,2.517c0.006,2.483,1.085,3.6,3.551,3.613c0.926,0.005,1.753,0.148,2.302,0.986
		c0.201,0.307,0.407,0.674,0.238,1.003c-0.164,0.318-0.578,0.164-0.883,0.169c-0.799,0.013-1.598,0.021-2.396-0.008
		c-2.855-0.106-5.014-2.294-5.097-5.164c-0.022-0.758-0.003-1.518-0.003-2.277c0-0.719,0.048-1.442-0.011-2.156
		C100.363,5.737,100.916,5.823,101.588,6.193z M83.331,10.015c0.435-2.212,2.457-3.943,4.853-4.097
		c0.914-0.059,1.836,0.013,2.753-0.015c0.774-0.023,0.78,0.363,0.529,0.901c-0.349,0.747-0.937,1.18-1.768,1.237
		c-0.517,0.036-1.041-0.003-1.554,0.058c-1.641,0.194-2.762,1.57-2.691,3.259c0.068,1.607,1.284,2.835,2.909,2.926
		c0.866,0.049,1.777-0.124,2.519,0.509c0.439,0.375,0.869,0.869,0.668,1.429c-0.17,0.473-0.779,0.163-1.188,0.217
		c-0.314,0.041-0.638,0.008-1.219,0.008c-0.903,0.041-2.049-0.004-3.115-0.575C83.877,14.72,82.844,12.491,83.331,10.015z"/>
	<path class="st0" d="M46.408,59.271c1.248-1.03,2.29-1.885,3.327-2.745c4.025-3.338,8.051-6.676,12.071-10.019
		c0.337-0.28,0.871-0.474,0.216-1.059c-4.776-4.27-10.354-6.493-16.753-6.692c-0.64-0.02-0.827,0.18-0.735,0.838
		c0.182,1.303,0.272,2.619,0.395,3.929C45.416,48.683,45.899,53.844,46.408,59.271z"/>
	<path class="st0" d="M62.417,47.22c-3.992,4.894-8.04,9.744-12.061,14.615c-0.159,0.193-0.521,0.381-0.302,0.682
		c0.104,0.142,0.425,0.152,0.652,0.174c5.967,0.567,11.935,1.135,17.904,1.684c1.549,0.143,1.552,0.115,1.493-1.461
		c-0.331-5.907-2.391-11.118-6.268-15.606C63.363,46.76,63.061,46.431,62.417,47.22z"/>
	<path class="st0" d="M40.424,39.213c-5.049,0.93-9.398,3.214-13.09,6.79c-0.634,0.614-0.593,0.934,0.079,1.431
		c0.93,0.688,1.791,1.467,2.683,2.205c3.811,3.154,7.622,6.307,11.623,9.618c0.056-0.474,0.088-0.701,0.109-0.928
		c0.506-5.445,0.98-10.893,1.526-16.335C43.693,38.622,43.736,38.603,40.424,39.213z"/>
	<path class="st0" d="M69.102,65.415c-3.253,0.349-6.514,0.624-9.771,0.932c-3.134,0.296-6.267,0.597-9.61,0.917
		c4.097,4.95,8.027,9.671,11.916,14.426c0.591,0.723,0.865,0.312,1.272-0.112c4.101-4.265,6.458-9.336,7.118-15.216
		C70.118,65.539,69.947,65.324,69.102,65.415z"/>
	<path class="st0" d="M20.807,64.27c3.055-0.346,6.124-0.577,9.186-0.866c2.727-0.257,5.451-0.534,8.23-0.808
		c-0.069-0.198-0.078-0.323-0.144-0.402c-3.89-4.716-7.79-9.424-11.67-14.147c-0.425-0.518-0.657-0.353-0.994,0.07
		c-3.557,4.462-5.392,9.553-5.63,15.243C19.751,64.153,19.958,64.366,20.807,64.27z"/>
	<path class="st0" d="M60.592,82.301c-3.583-2.931-7.14-5.893-10.705-8.845c-1.095-0.907-2.188-1.816-3.473-2.883
		c-0.58,6.102-1.115,11.899-1.7,17.69c-0.088,0.874,0.324,0.884,0.953,0.856c5.549-0.243,10.527-2.016,14.927-5.437
		C61.333,83.107,61.231,82.823,60.592,82.301z"/>
	<path class="st0" d="M38.439,67.253c-6.169-0.574-12.052-1.122-17.934-1.669c-0.896-0.083-0.576,0.58-0.535,0.969
		c0.555,5.373,2.649,10.068,6.208,14.132c0.553,0.632,0.804,0.444,1.237-0.094c1.63-2.022,3.303-4.008,4.959-6.008
		C34.329,72.22,36.285,69.856,38.439,67.253z"/>
	<path class="st0" d="M42.743,81.031c-0.325-3.403-0.657-6.806-0.982-10.177c-0.323-0.099-0.453,0.083-0.599,0.203
		c-4.279,3.536-8.543,7.091-12.845,10.601c-0.727,0.593-0.332,0.86,0.124,1.252c4.088,3.521,8.818,5.534,14.177,6.117
		c0.751,0.082,0.878-0.16,0.805-0.843C43.169,85.803,42.971,83.416,42.743,81.031z"/>
	<path class="st0" d="M159.633,76.33c-0.001-2.08,0.003-4.16-0.001-6.24c-0.012-5.603-3.511-10.868-8.581-12.917
		c-5.346-2.16-11.135-0.934-15.141,3.415c-4.079,4.428-4.963,9.662-2.741,15.151c2.247,5.549,6.593,8.498,12.675,8.582
		c4.239,0.058,8.479-0.009,12.719,0.028c0.822,0.007,1.111-0.203,1.09-1.061C159.597,80.97,159.633,78.65,159.633,76.33z"/>
	<path class="st0" d="M158.362,118.911c-0.24-0.288-0.35-0.886-0.788-0.766c-0.458,0.125-0.454,0.688-0.469,1.131
		c-0.007,0.198-0.001,0.397-0.001,0.596c0.009,0,0.019,0,0.028,0c0,0.357-0.051,0.723,0.012,1.069c0.1,0.554,0.466,0.921,1.02,1.04
		c0.675,0.145,1.172-0.214,1.527-0.714c0.362-0.508-0.24-0.754-0.432-1.096C159.008,119.723,158.692,119.306,158.362,118.911z"/>
	<path class="st0" d="M168.717,114.122c-0.961,0.038-0.565,0.797-0.597,1.266c-0.057,0.834-0.016,1.676-0.016,2.514
		c0,0.918-0.03,1.838,0.012,2.754c0.022,0.479-0.321,1.216,0.65,1.221c0.817,0.004,1.84,0.04,1.922-0.964
		c0.156-1.901,0.159-3.831,0.014-5.733C170.621,114.122,169.583,114.088,168.717,114.122z"/>
	<path class="st0" d="M125.726,115.508c-0.086-0.851-0.484-1.482-1.433-1.426c-0.863,0.051-1.248,0.64-1.267,1.464
		c-0.021,0.88-0.012,1.76-0.011,2.64c0,0.333,0.046,0.587,0.478,0.687c1.681,0.389,2.257-0.024,2.254-1.686c0-0.12,0-0.24,0-0.36
		c-0.004,0-0.008,0-0.013,0C125.734,116.386,125.77,115.943,125.726,115.508z"/>
	<path class="st0" d="M97.109,114.11c-1.145-0.042-0.744,0.792-0.776,1.335c-0.048,0.834-0.013,1.674-0.012,2.511
		c0,0.877-0.001,1.754,0.001,2.631c0.003,1.326,0.248,1.519,1.542,1.246c0.727-0.154,1.106-0.585,1.111-1.331
		c0.006-0.837,0.008-1.674,0.008-2.512s0.035-1.677-0.014-2.511C98.902,114.309,98.068,114.145,97.109,114.11z"/>
	<path class="st0" d="M228.32,114.08c-0.848,0.028-1.272,0.599-1.278,1.435c-0.012,1.675-0.01,3.351,0.003,5.026
		c0.007,0.899,0.465,1.477,1.38,1.449c0.846-0.026,1.266-0.602,1.284-1.435c0.018-0.837,0.004-1.675,0.005-2.513
		c0.001-0.838,0.021-1.676-0.005-2.513C229.681,114.647,229.241,114.05,228.32,114.08z"/>
	<path class="st0" d="M60.548,115.399c-0.064-0.936-0.79-1.331-1.937-1.291c-1.062,0.037-0.653,0.806-0.687,1.305
		c-0.057,0.833-0.015,1.673-0.014,2.51c0.002,1.036-0.007,2.073,0.007,3.109c0.004,0.294-0.105,0.633,0.305,0.812
		c1.038,0.454,2.287-0.285,2.337-1.425c0.03-0.676,0.012-1.355,0.011-2.033C60.571,117.391,60.616,116.391,60.548,115.399z"/>
	<path class="st0" d="M72.356,114.079c-0.785,0.018-1.246,0.473-1.294,1.273c-0.028,0.476-0.005,0.954-0.005,1.431
		c-0.002,0-0.004,0-0.007,0c0,0.119,0,0.239,0,0.358c-0.004,1.814,0.233,2.005,2.045,1.732c0.366-0.055,0.61-0.157,0.607-0.562
		c-0.007-1.033,0.035-2.071-0.046-3.098C73.6,114.49,73.089,114.062,72.356,114.079z"/>
	<path class="st0" d="M54.036,115.374c-0.089-0.819-0.54-1.352-1.414-1.293c-0.798,0.054-1.203,0.571-1.221,1.357
		c-0.021,0.917-0.012,1.836-0.004,2.753c0.002,0.266-0.041,0.526,0.34,0.66c1.409,0.495,2.322-0.104,2.32-1.564
		c0-0.12,0-0.239,0-0.359c-0.003,0-0.007,0-0.01,0C54.046,116.41,54.092,115.887,54.036,115.374z"/>
	<path class="st0" d="M207.507,14.299c1.731-0.006,3.075-1.394,3.052-3.151c-0.023-1.76-1.387-3.107-3.128-3.09
		c-1.637,0.016-2.975,1.41-2.983,3.107C204.439,12.953,205.759,14.305,207.507,14.299z"/>
	<path class="st0" d="M141.51,14.339c0.259,0,0.486,0.001,0.685-0.003c1.39-0.026,1.389-0.252,1.385-2.058
		c-0.001-0.398,0.006-0.797-0.002-1.195c-0.027-1.334-0.692-2.295-1.873-2.814c-1.139-0.5-2.277-0.354-3.23,0.506
		c-0.966,0.872-1.324,1.961-0.986,3.242C137.938,13.721,139.006,14.335,141.51,14.339z"/>
	<path class="st0" d="M328.603,107.083c-108.679,0-217.358,0-326.037,0.002c-0.519,0-1.038,0.029-1.557,0.044
		c-0.325,0.025-0.733-0.289-0.936,0.23c-0.013,6.679-0.027,13.358-0.039,20.037c-0.003,1.806,0,1.806,1.854,1.806
		c109.104,0,209.853,0,318.957,0c0.84,0,1.68,0.009,2.52-0.004c4.218-0.07,7.384-3.294,7.39-7.529
		c0.005-4.16,0.002-8.32,0.002-12.48C330.756,107.084,330.756,107.083,328.603,107.083z M54.787,122.022
		c-0.002,0.273,0.021,0.611-0.399,0.582c-0.319-0.022-0.326-0.295-0.328-0.538c-0.004-0.478-0.051-0.963,0.008-1.434
		c0.108-0.864-0.259-1.076-1.075-1.05c-1.985,0.063-1.518-0.088-1.616,1.583c-0.029,0.489,0.345,1.387-0.354,1.384
		c-0.697-0.003-0.332-0.905-0.346-1.391c-0.05-1.833-0.035-3.668-0.016-5.502c0.015-1.498,0.82-2.35,2.135-2.314
		c1.244,0.034,1.969,0.876,1.99,2.34c0.014,0.997,0.003,1.994,0.003,2.99C54.79,119.789,54.794,120.905,54.787,122.022z
		 M61.29,120.311c-0.021,1.816-2.207,3.115-3.827,2.299c-0.389-0.196-0.277-0.537-0.28-0.834c-0.012-1.279-0.005-2.557-0.005-3.836
		c0.003-1.239,0.03-2.478-0.008-3.716c-0.019-0.614,0.167-0.895,0.809-0.838c0.437,0.038,0.881-0.017,1.317,0.024
		c1.26,0.118,1.967,0.84,1.993,2.107C61.323,117.114,61.309,118.713,61.29,120.311z M67.97,114.443
		c-0.51,2.46-1.06,4.913-1.604,7.366c-0.074,0.331-0.02,0.79-0.521,0.817c-0.523,0.029-0.484-0.425-0.557-0.762
		c-0.553-2.533-1.115-5.064-1.646-7.602c-0.057-0.271-0.47-0.75,0.184-0.841c0.523-0.073,0.488,0.425,0.56,0.753
		c0.401,1.831,0.79,3.666,1.186,5.498c0.03,0.138,0.09,0.269,0.136,0.403c0.082-0.003,0.163-0.006,0.245-0.009
		c0.425-1.903,0.84-3.808,1.282-5.707c0.088-0.377-0.037-1.066,0.633-0.914C68.491,113.587,68.036,114.126,67.97,114.443z
		 M74.445,121.995c-0.001,0.276,0.029,0.621-0.374,0.611c-0.399-0.01-0.349-0.358-0.356-0.631c-0.007-0.28-0.003-0.559-0.003-0.839
		c-0.001-1.552-0.008-1.453-1.547-1.565c-1.48-0.108-1.021,0.871-1.129,1.615c-0.07,0.484,0.356,1.356-0.396,1.359
		c-0.604,0.003-0.289-0.856-0.299-1.319c-0.04-1.837-0.028-3.675-0.015-5.513c0.011-1.525,0.78-2.39,2.073-2.372
		c1.277,0.018,2.027,0.898,2.045,2.422c0.011,0.999,0.002,1.998,0.002,2.997C74.447,119.837,74.449,120.916,74.445,121.995z
		 M81.017,121.817c-0.001,0.293,0.125,0.701-0.309,0.802c-0.496,0.116-0.58-0.326-0.701-0.648c-0.62-1.643-1.22-3.293-1.842-4.935
		c-0.091-0.24-0.06-0.572-0.566-0.732c0,1.875,0.006,3.667-0.005,5.459c-0.002,0.326,0.161,0.848-0.381,0.828
		c-0.536-0.019-0.334-0.548-0.336-0.863c-0.017-2.437-0.021-4.873,0-7.31c0.003-0.345-0.255-0.875,0.334-0.995
		c0.573-0.116,0.591,0.432,0.722,0.774c0.703,1.844,1.386,3.697,2.327,5.501c0-1.81-0.01-3.62,0.009-5.429
		c0.003-0.311-0.199-0.837,0.363-0.838c0.547-0.001,0.378,0.518,0.38,0.835C81.029,116.784,81.028,119.301,81.017,121.817z
		 M84.25,118.051c0.001,0,0.003,0,0.004,0c0,0.838-0.028,1.678,0.007,2.515c0.055,1.32,1.053,1.836,2.129,1.103
		c0.29-0.198,0.57-0.62,0.869-0.17c0.263,0.396-0.21,0.631-0.468,0.829c-1.269,0.972-3.109,0.263-3.267-1.36
		c-0.189-1.941-0.169-3.905-0.008-5.856c0.069-0.833,0.566-1.411,1.349-1.668c0.773-0.254,1.506-0.096,2.12,0.457
		c0.192,0.174,0.503,0.378,0.264,0.687c-0.209,0.271-0.469,0.206-0.707-0.045c-0.458-0.484-0.995-0.648-1.617-0.31
		c-0.622,0.339-0.694,0.915-0.68,1.543C84.263,116.534,84.25,117.293,84.25,118.051z M92.963,122.646
		c-1.921,0.563-3.372-0.496-3.376-2.482c-0.004-1.794,0.085-3.593-0.028-5.38c-0.076-1.199,0.334-1.59,1.458-1.396
		c0.155,0.027,0.318,0.004,0.478,0.004c0,0.002,0,0.004,0,0.005c0.439,0,0.877-0.003,1.316,0.001
		c0.246,0.003,0.512,0.032,0.523,0.347c0.01,0.317-0.25,0.358-0.498,0.372c-0.079,0.005-0.161-0.007-0.239,0.004
		c-0.729,0.111-1.804-0.394-2.119,0.259c-0.362,0.751-0.126,1.791-0.151,2.705c-0.012,0.428,0.23,0.54,0.61,0.525
		c0.398-0.016,0.797-0.008,1.196-0.001c0.211,0.004,0.41,0.069,0.425,0.315c0.018,0.285-0.139,0.44-0.433,0.437
		c-0.04,0-0.081-0.006-0.119,0c-0.532,0.084-1.321-0.302-1.554,0.208c-0.338,0.739-0.197,1.648-0.059,2.466
		c0.109,0.647,0.675,0.833,1.281,0.842c0.398,0.007,0.797-0.005,1.196,0.007c0.25,0.007,0.49,0.063,0.479,0.389
		C93.34,122.509,93.174,122.584,92.963,122.646z M99.714,120.632c-0.114,1.563-2.648,2.806-3.911,1.952
		c-0.238-0.161-0.215-0.409-0.215-0.645c-0.001-2.598,0.015-5.197-0.007-7.795c-0.005-0.583,0.218-0.73,0.769-0.765
		c2.61-0.166,3.386,0.544,3.387,3.176c0,0.48,0,0.959,0,1.439c-0.004,0-0.008,0-0.012,0
		C99.726,118.874,99.778,119.757,99.714,120.632z M105.308,115.852c0.013,0.757,0.003,1.514,0.003,2.272
		c0,0.797,0.011,1.594-0.004,2.391c-0.011,0.614,0.196,1.095,0.766,1.368c0.53,0.254,1.013,0.142,1.425-0.257
		c0.239-0.231,0.496-0.523,0.769-0.13c0.245,0.352-0.111,0.583-0.345,0.773c-0.642,0.521-1.377,0.629-2.134,0.322
		c-0.765-0.31-1.246-0.93-1.268-1.74c-0.05-1.871-0.053-3.746,0.008-5.617c0.028-0.855,0.531-1.503,1.375-1.78
		c0.823-0.27,1.575-0.095,2.204,0.514c0.166,0.161,0.404,0.358,0.223,0.601c-0.19,0.254-0.469,0.281-0.71,0.008
		c-0.448-0.505-0.976-0.667-1.604-0.359C105.317,114.559,105.297,115.194,105.308,115.852z M113.718,122.642
		c-0.838,0.005-1.677,0.009-2.515-0.003c-0.555-0.008-0.468-0.436-0.469-0.783c-0.005-1.317-0.002-2.635-0.002-3.952
		c-0.001-1.278-0.008-2.555,0.004-3.833c0.002-0.253-0.103-0.621,0.315-0.653c0.492-0.038,0.445,0.361,0.446,0.668
		c0.008,2.156,0.063,4.314-0.016,6.466c-0.038,1.032,0.215,1.506,1.303,1.331c0.31-0.05,0.638-0.009,0.956,0.006
		c0.232,0.011,0.364,0.145,0.354,0.384C114.086,122.509,113.95,122.641,113.718,122.642z M116.737,115.854
		c-0.001,0.12,0.017,0.242-0.003,0.359c-0.17,1.027,0.19,1.495,1.289,1.334c0.328-0.048,0.946-0.244,0.947,0.361
		c0.001,0.622-0.605,0.337-0.947,0.36c-0.654,0.044-1.333-0.187-1.314,0.954c0.035,2.079,0.163,2.475,1.317,2.575
		c0.079,0.007,0.168-0.018,0.238,0.009c0.492,0.19,1.475-0.41,1.428,0.449c-0.036,0.65-1.02,0.308-1.562,0.303
		c-1.424-0.014-2.084-0.738-2.116-2.179c-0.012-0.519-0.002-1.039-0.003-1.558c0-0.519,0-1.039,0-1.558
		c0.001-1.039-0.006-2.077,0.007-3.116c0.003-0.229,0.027-0.482,0.131-0.677c0.11-0.207,3.374-0.244,3.515-0.045
		c0.191,0.269,0.195,0.553-0.216,0.609c-0.314,0.043-0.637,0.01-0.957,0.016C116.519,114.083,116.76,113.737,116.737,115.854z
		 M126.096,122.606c-0.473,0.001-0.362-0.43-0.377-0.729c-0.013-0.279-0.04-0.564,0.003-0.837c0.177-1.121-0.218-1.448-1.402-1.498
		c-1.55-0.065-1.23,0.85-1.291,1.728c-0.032,0.453,0.371,1.275-0.342,1.297c-0.759,0.023-0.361-0.81-0.394-1.254
		c-0.065-0.873-0.019-1.755-0.019-2.633c0.002-1.038-0.027-2.077,0.009-3.113c0.049-1.403,0.884-2.25,2.131-2.229
		c1.203,0.021,2.013,0.831,2.041,2.191c0.043,2.115,0.015,4.231,0.008,6.346C126.463,122.171,126.575,122.606,126.096,122.606z
		 M132.984,121.551c-0.004,0.352,0.272,0.885-0.256,1.044c-0.627,0.189-0.674-0.428-0.818-0.803
		c-0.601-1.564-1.172-3.14-1.756-4.711c-0.093-0.25-0.111-0.544-0.566-0.815c0,1.348,0,2.586,0,3.823
		c0,0.639,0.002,1.278-0.003,1.917c-0.002,0.279,0.02,0.616-0.387,0.601c-0.399-0.015-0.359-0.357-0.363-0.63
		c-0.008-0.599-0.005-1.198-0.006-1.797c0-1.837-0.023-3.675,0.017-5.512c0.009-0.418-0.327-1.101,0.323-1.225
		c0.728-0.138,0.677,0.658,0.848,1.088c0.559,1.409,1.047,2.846,1.587,4.262c0.12,0.316,0.126,0.708,0.65,1.035
		c0-1.857-0.018-3.568,0.014-5.278c0.007-0.382-0.263-1.081,0.324-1.086c0.748-0.006,0.375,0.748,0.383,1.139
		C133.019,116.917,133.01,119.235,132.984,121.551z M136.67,122.61c-0.491,0.048-0.43-0.366-0.431-0.673
		c-0.007-1.359-0.003-2.717-0.003-4.076c-0.001-1.279-0.005-2.558,0.003-3.837c0.002-0.267-0.039-0.611,0.378-0.608
		c0.41,0.004,0.379,0.339,0.38,0.612c0.005,2.638,0.006,5.275,0.003,7.913C136.999,122.214,137.042,122.574,136.67,122.61z
		 M144.013,122.614c-0.458,0.1-0.597-0.276-0.727-0.628c-0.565-1.535-1.133-3.069-1.707-4.601c-0.134-0.357-0.293-0.705-0.682-1.018
		c0,1.761,0.012,3.522-0.01,5.283c-0.004,0.349,0.212,0.945-0.397,0.935c-0.516-0.008-0.311-0.562-0.313-0.874
		c-0.019-2.476-0.018-4.953-0.001-7.429c0.002-0.31-0.193-0.786,0.342-0.864c0.491-0.072,0.537,0.381,0.659,0.704
		c0.723,1.921,1.439,3.845,2.158,5.768c0.076-0.016,0.152-0.032,0.228-0.047c0-1.853-0.01-3.707,0.009-5.56
		c0.003-0.312-0.199-0.836,0.352-0.848c0.577-0.013,0.358,0.527,0.36,0.827c0.018,2.516,0.014,5.033-0.001,7.549
		C144.281,122.094,144.465,122.515,144.013,122.614z M149.044,122.688c-1.125,0.163-2.213-0.591-2.325-1.734
		c-0.093-0.95-0.019-1.916-0.019-2.875c-0.003-0.959-0.042-1.92,0.008-2.876c0.047-0.883,0.545-1.505,1.391-1.762
		c0.822-0.25,1.588-0.092,2.195,0.56c0.152,0.164,0.368,0.362,0.139,0.614c-0.202,0.223-0.391,0.118-0.625-0.015
		c-1.586-0.901-2.383-0.452-2.395,1.338c-0.01,1.479,0.014,2.958-0.005,4.436c-0.009,0.719,0.247,1.247,0.926,1.516
		c0.498,0.197,0.951,0.047,1.325-0.305c0.573-0.54,0.49-1.262,0.376-1.916c-0.099-0.57-0.662-0.225-1.01-0.307
		c-0.253-0.059-0.606,0.067-0.626-0.356c-0.021-0.44,0.361-0.435,0.59-0.363c0.614,0.191,1.634-0.595,1.811,0.639
		C151.085,121.265,150.418,122.49,149.044,122.688z M162.08,122.753c-0.193,0.024-0.483,0.063-0.577-0.042
		c-0.867-0.967-1.64-0.405-2.595-0.064c-1.523,0.544-2.587-0.677-2.588-2.878c-0.05-0.674,0.013-1.454,0.582-2.115
		c0.513-0.595-0.167-0.926-0.347-1.349c-0.463-1.088-0.1-2.244,0.924-2.759c1.01-0.508,2.281-0.108,2.77,0.895
		c0.146,0.299,0.455,0.694-0.011,0.93c-0.4,0.202-0.493-0.195-0.639-0.492c-0.376-0.765-1.01-1.066-1.775-0.64
		c-0.811,0.452-0.919,1.206-0.422,1.947c0.867,1.293,1.818,2.528,2.697,3.812c0.471,0.689,0.699,0.104,0.992-0.137
		c0.218-0.179,0.398-0.423,0.696-0.12c0.314,0.319,0.007,0.476-0.16,0.681c-0.809,0.995-0.739,1.216,0.536,1.573
		c0.252,0.071,0.486,0.143,0.47,0.419C162.615,122.726,162.306,122.725,162.08,122.753z M171.563,120.338
		c-0.064,1.796-2.279,3.071-3.879,2.274c-0.383-0.191-0.296-0.525-0.298-0.825c-0.01-1.274-0.004-2.549-0.004-3.824
		c0.003-1.275,0.022-2.55-0.006-3.824c-0.013-0.572,0.206-0.729,0.765-0.761c2.666-0.153,3.432,0.554,3.432,3.256
		C171.572,117.869,171.607,119.105,171.563,120.338z M175.994,117.917c0.001,1.355,0.005,2.711-0.003,4.066
		c-0.001,0.263,0.064,0.619-0.348,0.627c-0.41,0.008-0.37-0.334-0.37-0.608c-0.003-2.631-0.005-5.262,0.002-7.893
		c0.001-0.296-0.086-0.718,0.417-0.679c0.414,0.032,0.293,0.414,0.296,0.66C176.002,115.366,175.994,116.641,175.994,117.917z
		 M182.475,122.631c-0.864,0.297-1.66,0.088-2.264-0.63c-0.158-0.188-0.461-0.415-0.18-0.707c0.253-0.263,0.447-0.096,0.692,0.115
		c0.905,0.78,1.702,0.756,2.208-0.014c0.49-0.745,0.239-2.267-0.464-2.693c-0.235-0.142-0.509-0.225-0.772-0.316
		c-2.042-0.704-2.106-1.231-1.874-3.494c0.084-0.816,0.704-1.333,1.515-1.503c0.793-0.166,1.509,0.036,2.054,0.666
		c0.172,0.199,0.441,0.444,0.194,0.725c-0.251,0.286-0.462,0.105-0.677-0.137c-0.458-0.52-1.017-0.782-1.699-0.426
		c-0.725,0.378-0.716,1.067-0.74,1.76c-0.025,0.721,0.193,1.245,0.922,1.477c0.265,0.085,0.527,0.181,0.787,0.28
		c1.336,0.508,1.712,1.068,1.705,2.528C183.939,121.365,183.579,122.252,182.475,122.631z M187.754,117.917
		c0.001,1.355,0.005,2.71-0.003,4.066c-0.001,0.262,0.066,0.62-0.347,0.627c-0.408,0.007-0.369-0.334-0.37-0.609
		c-0.003-2.631-0.006-5.261,0.001-7.892c0.001-0.296-0.085-0.718,0.417-0.678c0.414,0.032,0.292,0.414,0.295,0.66
		C187.762,115.366,187.754,116.642,187.754,117.917z M195.036,121.601c-0.003,0.358,0.219,0.905-0.338,1.007
		c-0.62,0.113-0.611-0.513-0.755-0.886c-0.665-1.732-1.305-3.474-1.955-5.213c-0.117,0.016-0.233,0.032-0.349,0.049
		c0,1.749,0.007,3.498-0.006,5.246c-0.002,0.323,0.155,0.821-0.416,0.804c-0.488-0.014-0.331-0.468-0.332-0.751
		c-0.011-2.555-0.011-5.11-0.001-7.665c0.001-0.289-0.141-0.692,0.331-0.773c0.499-0.085,0.564,0.327,0.688,0.66
		c0.601,1.606,1.201,3.212,1.807,4.816c0.106,0.281,0.237,0.553,0.579,0.783c0-1.734-0.016-3.468,0.013-5.201
		c0.006-0.372-0.28-1.035,0.396-1.031c0.577,0.004,0.333,0.626,0.337,0.97C195.058,116.81,195.055,119.206,195.036,121.601z
		 M200.823,114.113c-0.118,0.012-0.238,0.006-0.357,0.014c-2.315,0.152-2.426,0.314-2.4,2.618c0.009,0.774,0.298,0.988,0.988,0.911
		c0.236-0.026,0.478-0.011,0.717-0.003c0.28,0.01,0.604-0.002,0.562,0.418c-0.032,0.325-0.309,0.288-0.544,0.319
		c-1.702,0.221-1.702,0.224-1.702,1.962c0,0.479,0.027,0.959-0.013,1.435c-0.025,0.304,0.212,0.834-0.382,0.806
		c-0.456-0.021-0.321-0.475-0.324-0.768c-0.013-1.037-0.005-2.074-0.005-3.111c0.002,0,0.004,0,0.007,0
		c0-1.117-0.06-2.237,0.014-3.349c0.105-1.584,2.141-2.664,3.525-1.934c0.176,0.093,0.22,0.225,0.216,0.38
		C201.121,113.99,201.002,114.095,200.823,114.113z M203.988,117.181c0.068,0.703,0.765,0.309,1.175,0.424
		c0.336,0.095,0.942-0.262,0.955,0.355c0.012,0.614-0.591,0.36-0.941,0.387c-0.606,0.046-1.259-0.194-1.261,0.883
		c-0.005,2.099,0.123,2.517,1.234,2.64c0.158,0.017,0.333-0.036,0.477,0.013c0.428,0.144,1.271-0.391,1.231,0.414
		c-0.035,0.693-0.859,0.331-1.311,0.337c-1.723,0.021-2.375-0.665-2.389-2.388c-0.004-0.479-0.002-0.959-0.003-1.438
		s0-0.959,0-1.438c0.002,0,0.004,0,0.005,0c0-0.999-0.002-1.997,0.002-2.996c0.001-0.238-0.034-0.498,0.048-0.71
		c0.133-0.346,3.454-0.419,3.641-0.085c0.132,0.236,0.092,0.479-0.22,0.545c-0.192,0.041-0.399-0.001-0.596,0.023
		c-0.656,0.077-1.586-0.341-1.914,0.219C203.645,115.177,203.897,116.241,203.988,117.181z M210.017,120.389
		c-0.009,0.651,0.129,1.198,0.757,1.494c0.577,0.272,1.093,0.131,1.513-0.333c0.219-0.242,0.448-0.362,0.702-0.089
		c0.301,0.323-0.046,0.509-0.214,0.68c-0.586,0.595-1.325,0.751-2.098,0.51c-0.832-0.259-1.359-0.876-1.417-1.751
		c-0.064-0.953-0.015-1.914-0.015-2.871c0.005,0,0.009,0,0.014,0c0-0.957-0.041-1.916,0.013-2.87c0.047-0.83,0.53-1.417,1.31-1.698
		c0.772-0.279,1.508-0.131,2.127,0.404c0.206,0.177,0.61,0.396,0.267,0.763c-0.254,0.271-0.499,0.083-0.711-0.133
		c-0.439-0.446-0.964-0.576-1.526-0.294c-0.617,0.309-0.732,0.876-0.723,1.52C210.036,117.277,210.038,118.833,210.017,120.389z
		 M218.929,114.109c-1.1-0.179-1.216,0.413-1.192,1.318c0.054,2.077,0.023,4.157,0.004,6.236c-0.003,0.347,0.238,0.938-0.391,0.928
		c-0.53-0.009-0.309-0.557-0.317-0.87c-0.027-1.119-0.011-2.239-0.011-3.358c-0.002-1.079-0.044-2.161,0.013-3.238
		c0.04-0.765-0.175-1.121-0.992-1.023c-0.267,0.032-0.734,0.166-0.711-0.349c0.02-0.471,0.454-0.35,0.75-0.354
		c0.919-0.013,1.839-0.009,2.758,0c0.262,0.002,0.623-0.093,0.663,0.312C219.543,114.113,219.21,114.155,218.929,114.109z
		 M222.812,122.61c-0.492,0.012-0.378-0.416-0.38-0.714c-0.007-1.319-0.003-2.637-0.003-3.956c0.001-1.279-0.005-2.557,0.006-3.836
		c0.003-0.296-0.089-0.723,0.416-0.682c0.388,0.031,0.329,0.394,0.329,0.662c0.005,2.597,0.006,5.194,0.001,7.791
		C223.181,122.174,223.289,122.598,222.812,122.61z M230.428,120.695c-0.065,1.229-0.933,2.07-2.053,2.067
		c-1.131-0.003-2.04-0.822-2.081-2.046c-0.061-1.795-0.064-3.596,0.001-5.391c0.045-1.239,0.944-2.01,2.111-1.985
		c1.117,0.024,1.934,0.773,2.016,1.964c0.063,0.914,0.013,1.836,0.013,2.755C230.437,118.938,230.475,119.819,230.428,120.695z
		 M236.944,121.717c-0.002,0.321,0.2,0.791-0.319,0.894c-0.485,0.096-0.554-0.348-0.677-0.677c-0.557-1.494-1.109-2.991-1.67-4.484
		c-0.162-0.431-0.347-0.852-0.716-1.236c0,1.813,0.013,3.626-0.012,5.439c-0.005,0.34,0.242,0.961-0.378,0.933
		c-0.585-0.026-0.318-0.633-0.322-0.976c-0.024-2.395-0.025-4.791-0.002-7.186c0.003-0.344-0.261-0.883,0.315-0.999
		c0.55-0.111,0.584,0.425,0.718,0.78c0.591,1.568,1.167,3.141,1.763,4.707c0.106,0.277,0.093,0.638,0.582,0.848
		c0-1.897-0.009-3.692,0.009-5.487c0.003-0.314-0.179-0.848,0.373-0.834c0.545,0.014,0.334,0.547,0.336,0.854
		C236.961,116.767,236.958,119.242,236.944,121.717z M246.672,121.11c-0.198,0.855-0.728,1.416-1.592,1.594
		c-0.802,0.165-1.507-0.057-2.034-0.706c-0.159-0.196-0.464-0.414-0.167-0.707c0.261-0.257,0.484-0.124,0.695,0.129
		c0.687,0.823,1.44,0.825,2.118,0.032c0.564-0.659,0.338-2.275-0.338-2.708c-0.296-0.19-0.646-0.313-0.987-0.413
		c-1.838-0.539-2.192-1.665-1.613-3.707c0.421-1.483,2.556-1.753,3.51-0.537c0.153,0.195,0.475,0.427,0.18,0.709
		c-0.245,0.233-0.478,0.122-0.696-0.147c-0.445-0.55-1.014-0.77-1.694-0.431c-0.687,0.343-0.736,0.982-0.718,1.728
		c-0.215,1.087,0.579,1.415,1.464,1.729C246.535,118.291,247.085,119.325,246.672,121.11z M253.377,114.347
		c-0.151,0.577-0.385,1.133-0.592,1.695c-0.701,1.906-1.556,3.776-1.277,5.896c0.035,0.265,0.077,0.615-0.303,0.676
		c-0.388,0.062-0.477-0.241-0.438-0.542c0.357-2.769-1.087-5.098-1.835-7.598c-0.099-0.331-0.562-0.82-0.023-1.018
		c0.601-0.22,0.62,0.464,0.759,0.836c0.457,1.22,0.883,2.452,1.32,3.68c0.097-0.005,0.194-0.011,0.291-0.016
		c0.46-1.274,0.918-2.549,1.383-3.821c0.132-0.361,0.214-0.917,0.752-0.691C253.911,113.652,253.453,114.058,253.377,114.347z
		 M259.652,121.057c-0.19,0.85-0.697,1.433-1.558,1.634c-0.854,0.199-1.58-0.07-2.13-0.749c-0.154-0.19-0.451-0.423-0.071-0.69
		c0.245-0.173,0.425-0.102,0.601,0.129c0.432,0.566,0.978,0.815,1.67,0.49c0.734-0.345,0.811-1.001,0.817-1.715
		c0.007-0.762-0.252-1.319-0.995-1.591c-0.224-0.082-0.447-0.171-0.676-0.234c-2.031-0.562-2.124-2.187-1.526-3.834
		c0.506-1.393,2.595-1.573,3.462-0.387c0.151,0.206,0.433,0.441,0.102,0.709c-0.228,0.185-0.43,0.089-0.603-0.137
		c-0.437-0.572-1.005-0.796-1.681-0.485c-0.74,0.34-0.806,1.024-0.777,1.804c-0.163,1.027,0.574,1.36,1.424,1.656
		C259.46,118.266,260.042,119.308,259.652,121.057z M265.307,114.107c-0.876-0.11-1.066,0.302-1.049,1.101
		c0.046,2.195,0.023,4.392,0.009,6.587c-0.002,0.315,0.169,0.832-0.41,0.798c-0.466-0.027-0.305-0.486-0.31-0.771
		c-0.017-1.158-0.007-2.316-0.007-3.473c0.001-1.038-0.032-2.078,0.012-3.114c0.032-0.752-0.078-1.256-1.013-1.129
		c-0.267,0.036-0.731,0.163-0.742-0.328c-0.011-0.476,0.422-0.378,0.723-0.38c0.918-0.009,1.837-0.01,2.755,0.003
		c0.292,0.004,0.715-0.105,0.685,0.403C265.934,114.225,265.549,114.138,265.307,114.107z M268.782,117.05
		c-0.002,0.792,0.667,0.452,1.075,0.554c0.379,0.095,1.047-0.276,1.083,0.334c0.04,0.667-0.663,0.44-1.017,0.397
		c-0.995-0.121-1.199,0.308-1.18,1.217c0.046,2.196,0.006,2.194,2.266,2.329c0.287,0.017,0.732-0.141,0.741,0.353
		c0.01,0.582-0.488,0.396-0.806,0.411c-2.29,0.108-2.946-0.522-2.946-2.804c0-0.798,0-1.596,0-2.394
		c0.001-1.078,0.027-2.156-0.009-3.232c-0.021-0.617,0.187-0.866,0.82-0.833c0.796,0.042,1.596,0.015,2.394,0.012
		c0.303-0.001,0.584,0.027,0.558,0.429c-0.022,0.341-0.299,0.309-0.534,0.321c-0.08,0.004-0.16-0.007-0.239,0.002
		c-0.698,0.08-1.656-0.346-2.042,0.22C268.442,115.103,268.785,116.142,268.782,117.05z M279.446,121.754
		c-0.002,0.31,0.192,0.855-0.354,0.841c-0.5-0.013-0.359-0.536-0.361-0.868c-0.011-1.771-0.005-3.542-0.005-5.313
		c-0.076-0.014-0.153-0.029-0.229-0.043c-0.507,1.403-1.014,2.806-1.626,4.5c-0.88-1.559-1.112-3.096-1.985-4.446
		c0,1.584,0.033,3.17-0.02,4.752c-0.016,0.482,0.348,1.386-0.367,1.371c-0.704-0.016-0.319-0.92-0.329-1.409
		c-0.047-2.236-0.031-4.474-0.007-6.71c0.004-0.344-0.27-0.883,0.314-0.999c0.648-0.129,0.627,0.506,0.762,0.873
		c0.504,1.367,0.965,2.751,1.563,4.478c0.625-1.779,1.118-3.19,1.618-4.6c0.128-0.36,0.167-0.874,0.726-0.758
		c0.51,0.106,0.297,0.588,0.3,0.902C279.464,116.801,279.464,119.278,279.446,121.754z M285.573,121.021
		c-0.166,0.862-0.673,1.457-1.529,1.667c-0.843,0.206-1.591-0.021-2.142-0.72c-0.153-0.194-0.458-0.419-0.112-0.704
		c0.231-0.19,0.443-0.128,0.612,0.1c0.468,0.633,1.049,0.846,1.772,0.458c0.739-0.396,0.652-1.113,0.68-1.792
		c0.036-0.869-0.44-1.361-1.204-1.565c-2.397-0.638-2.335-1.664-2.149-3.453c0.085-0.822,0.633-1.38,1.439-1.595
		c0.838-0.223,1.59-0.019,2.178,0.639c0.175,0.195,0.454,0.445,0.204,0.721c-0.23,0.253-0.475,0.142-0.695-0.127
		c-0.449-0.55-1.018-0.773-1.698-0.429c-0.686,0.347-0.735,0.988-0.712,1.733c-0.205,1.016,0.502,1.382,1.364,1.69
		C285.401,118.294,285.923,119.201,285.573,121.021z"/>
</g>
</svg>